<?xml version="1.0" encoding="utf-8"?>
<!-- Generator: Adobe Illustrator 27.0.0, SVG Export Plug-In . SVG Version: 6.00 Build 0)  -->
<svg version="1.1" id="Ebene_1" xmlns="http://www.w3.org/2000/svg" xmlns:xlink="http://www.w3.org/1999/xlink" x="0px" y="0px"
	 viewBox="0 0 1024 1024" style="enable-background:new 0 0 1024 1024;" xml:space="preserve">
<style type="text/css">
	.st0{fill:url(#SVGID_1_);}
	.st1{fill:url(#SVGID_00000072993551609881550230000002166679858068619699_);}
	.st2{fill:url(#SVGID_00000012455361877495315110000011483290516899630761_);}
	.st3{fill:url(#SVGID_00000146501988345390469730000007360054464657486513_);}
	.st4{fill:url(#SVGID_00000171694524475243781520000009464996930131024520_);}
	
		.st5{fill:url(#SVGID_00000005248408972936014950000013842849417942089623_);stroke:url(#SVGID_00000151542036068026695520000010044227429307427751_);stroke-miterlimit:10;}
</style>
<g>
	<linearGradient id="SVGID_1_" gradientUnits="userSpaceOnUse" x1="768.1367" y1="398.6451" x2="874.3884" y2="398.6451">
		<stop  offset="0" style="stop-color:#76FFFF"/>
		<stop  offset="0.3243" style="stop-color:#64DAFC"/>
		<stop  offset="1" style="stop-color:#3B82F6"/>
	</linearGradient>
	<path class="st0" d="M874.13,360.6c-4.57,0.08-8.07,3.14-11.48,6.1c-0.47,0.39-0.92,0.79-1.39,1.18
		c-6.87,5.81-12.58,12.99-17.39,19.27c-23.04,30.07-40.25,54.52-55.68,79.17c0.73-34.4-6.36-70.67-20.06-102.58
		c1.31-1.39,2.51-2.71,3.71-4c1.35-1.45,2.69-2.92,4.2-4.51c6.91-7.36,14.05-14.95,23.06-19.76c9.93-5.32,20.63-5.95,28.65-1.73
		c2.47,1.3,4.77,3.1,7.01,4.85c3.24,2.53,6.59,5.16,10.66,6.42c3.51,1.08,7.26,1.04,10.89,1c4.45-0.06,8.65-0.12,12.32,1.81
		C872.99,350.08,875.17,355.26,874.13,360.6z"/>
	
		<linearGradient id="SVGID_00000061470249874730043960000018368676806998454198_" gradientUnits="userSpaceOnUse" x1="557.5192" y1="333.8432" x2="762.3973" y2="333.8432">
		<stop  offset="0" style="stop-color:#76FFFF"/>
		<stop  offset="0.3243" style="stop-color:#64DAFC"/>
		<stop  offset="1" style="stop-color:#3B82F6"/>
	</linearGradient>
	<path style="fill:url(#SVGID_00000061470249874730043960000018368676806998454198_);" d="M761.4,482.77
		c-4.96,39.03-28.36,70.4-47.12,89.84c-23.49,24.34-51.95,43.57-79.62,62.07c3.08-35.5-10.54-71.06-25.75-104.21l-3.06-6.67
		c-13.56-29.4-27.55-59.76-29.87-91.92c3.91,1.61,8.16,3.06,12.64,4.57c10.05,3.43,20.45,6.97,28.4,12.6
		c0.43,0.65,0.88,1.28,1.33,1.92l0.63-0.45c0.06,0.04,0.14,0.08,0.2,0.14l0.51-0.65l0.26-0.18c-0.02-0.02-0.04-0.06-0.06-0.08
		l0.51-0.63c-0.65-0.53-1.31-1.02-2-1.51c-64.25-91.85-78.79-212.46-38.13-316.2c7.58,46.69,21.71,92,42.06,134.75l1.69-0.8
		l0.67-0.14C610.55,194.38,626.17,112.4,668.72,33c-14.09,51.18-9.81,112.41,12.74,182.24c9.54,29.5,21.41,58.68,32.87,86.92
		c13.07,32.19,26.59,65.45,36.7,99.24C757.79,424.05,765.09,453.76,761.4,482.77z"/>
	
		<linearGradient id="SVGID_00000103232170381590815290000008317305213775118759_" gradientUnits="userSpaceOnUse" x1="504.0318" y1="698.2326" x2="791.6445" y2="698.2326">
		<stop  offset="0" style="stop-color:#76FFFF"/>
		<stop  offset="0.3243" style="stop-color:#64DAFC"/>
		<stop  offset="1" style="stop-color:#3B82F6"/>
	</linearGradient>
	<path style="fill:url(#SVGID_00000103232170381590815290000008317305213775118759_);" d="M769.06,641.12
		c-14.46,20.92-35.17,38.74-67.14,57.8c-9.71,5.79-19.8,11.32-29.56,16.7c-16.03,8.81-32.62,17.92-48.02,28.38
		c-49.63,33.72-90.41,86.8-112.3,146.05c-14.58-35.13-9.05-80.4,14.78-119.03c23.53-38.15,59.88-65.76,92.3-87.74
		c9.18-6.22,18.66-12.38,27.83-18.35c26.3-17.11,53.48-34.81,77.24-56.07c34.07-30.48,56.58-66.59,64.02-102.44
		C793.69,553.6,795.85,602.36,769.06,641.12z"/>
	
		<linearGradient id="SVGID_00000015356850452025932400000016968795897804446120_" gradientUnits="userSpaceOnUse" x1="265.2431" y1="357.3345" x2="599.2625" y2="357.3345">
		<stop  offset="0" style="stop-color:#76FFFF"/>
		<stop  offset="0.3243" style="stop-color:#64DAFC"/>
		<stop  offset="1" style="stop-color:#3B82F6"/>
	</linearGradient>
	<path style="fill:url(#SVGID_00000015356850452025932400000016968795897804446120_);" d="M599.26,565.39
		c-34.95-6.61-68.51-18.57-99.81-35.54c-5.65-3.06-11.56-6.46-16.29-11.26c-4.71-4.79-7.48-10.36-7.89-15.84l43.19-3.89l-0.18-1.96
		l-1.06,0.1l0.02-0.24c-57.84-6.97-113.51-32.26-156.79-71.26c-42.68-38.48-73.36-90.35-86.55-146.31
		c33.42,32.22,74.38,56.87,118.46,71.34l0.63-1.86c-0.35-0.12-0.73-0.24-1.08-0.37l0.04-0.02c-10.4-15.19-25.3-26.96-39.68-38.35
		c-11.95-9.44-24.3-19.21-34.03-30.89c-15.09-18.11-23.63-40.21-31.87-61.58c-8.48-22-17.23-44.67-21.14-68.18
		c18.25,41.19,54.87,70.69,88.67,94.26c54.68,38.11,113.79,69.81,175.76,94.18l18.57,57.56c1.57,4.87,3.2,9.93,3.69,15.07
		c0.45,5.04-0.18,10.22-0.8,15.23c-0.18,1.39-0.33,2.81-0.49,4.22c-2.14,19.8,0.29,40.17,7.05,58.91
		c5.53,15.43,13.95,29.71,22.08,43.53L599.26,565.39z"/>
	
		<linearGradient id="SVGID_00000118391319840494439370000015865811733867721902_" gradientUnits="userSpaceOnUse" x1="275.3498" y1="816.5504" x2="622.7537" y2="816.5504">
		<stop  offset="0" style="stop-color:#76FFFF"/>
		<stop  offset="0.3243" style="stop-color:#64DAFC"/>
		<stop  offset="1" style="stop-color:#3B82F6"/>
	</linearGradient>
	<path style="fill:url(#SVGID_00000118391319840494439370000015865811733867721902_);" d="M622.75,642.91
		c-52.89,23.18-97.69,66.04-123.15,117.83c-8.22,16.74-14.62,34.58-20.8,51.83c-6.63,18.49-13.5,37.62-22.61,55.34
		C421.6,935.25,350.69,983.48,275.35,991c53.91-25.65,97.99-71.83,121.03-126.92c7.07-16.88,12.3-34.8,17.37-52.1
		c6.54-22.33,13.31-45.41,24.04-66.41c17.23-33.66,45.08-62.03,78.42-79.87C550.61,647.29,587.39,639.42,622.75,642.91z"/>
	
		<linearGradient id="SVGID_00000136395885736415922270000018442499602735026097_" gradientUnits="userSpaceOnUse" x1="157.0299" y1="697.4982" x2="603.0893" y2="697.4982">
		<stop  offset="0" style="stop-color:#76FFFF"/>
		<stop  offset="0.3243" style="stop-color:#64DAFC"/>
		<stop  offset="1" style="stop-color:#3B82F6"/>
	</linearGradient>
	
		<linearGradient id="SVGID_00000165930380702340859660000010877526230556121236_" gradientUnits="userSpaceOnUse" x1="154.864" y1="697.4982" x2="605.0013" y2="697.4982">
		<stop  offset="0" style="stop-color:#76FFFF"/>
		<stop  offset="0.3243" style="stop-color:#64DAFC"/>
		<stop  offset="1" style="stop-color:#3B82F6"/>
	</linearGradient>
	
		<path style="fill:url(#SVGID_00000136395885736415922270000018442499602735026097_);stroke:url(#SVGID_00000165930380702340859660000010877526230556121236_);stroke-miterlimit:10;" d="
		M603.09,606.05c-67.57,4.73-130.76,37.84-180.55,83.82c-10.28,9.5-20.06,19.86-29.48,29.89c-13.19,14.01-26.83,28.52-42.04,40.74
		c-46.3,37.23-109.19,52.87-167.78,43.29c-8.62-2.26-17.15-5.18-26.22-8.32c65.86-8.62,127.41-39.23,174.04-86.66
		c9.83-10.03,19.11-20.92,28.1-31.44c14.25-16.72,28.99-33.99,46.22-48.08C459.39,585.21,540.33,575.77,603.09,606.05z"/>
</g>
</svg>
